<?xml version="1.0" encoding="UTF-8"?>
<svg id="_レイヤー_2" data-name="レイヤー 2" xmlns="http://www.w3.org/2000/svg" viewBox="0 0 288 76">
  <defs>
    <style>
      .cls-1 {
        fill: #fff;
      }

      .cls-2, .cls-3, .cls-4 {
        fill: none;
      }

      .cls-3 {
        stroke-linecap: round;
      }

      .cls-3, .cls-4 {
        stroke: #fff;
        stroke-miterlimit: 10;
        stroke-width: 4px;
      }
    </style>
  </defs>
  <g id="_レイヤー_1-2" data-name="レイヤー 1">
    <rect class="cls-2" width="288" height="76"/>
    <path class="cls-1" d="M93.89,55.32l8.78-13.88-8.1-12.76h4.86l3.58,5.84c.39.75.81,1.5,1.25,2.23.44.74.89,1.48,1.35,2.23h.25c.36-.75.74-1.5,1.15-2.23.41-.74.81-1.48,1.2-2.23l3.29-5.84h4.66l-8.1,13.2,8.78,13.44h-4.91l-3.93-6.23c-.46-.82-.92-1.63-1.4-2.43-.47-.8-.97-1.58-1.5-2.33h-.25c-.43.75-.86,1.53-1.3,2.33-.44.8-.91,1.61-1.4,2.43l-3.58,6.23h-4.71Z"/>
    <path class="cls-1" d="M123.11,55.32v-27.42h3.79l.45,5h.1c.94-1.75,2.1-3.14,3.46-4.17,1.36-1.03,2.8-1.54,4.32-1.54.64,0,1.19.04,1.64.13.45.08.88.24,1.29.48l-.86,3.99c-.47-.14-.89-.24-1.26-.33-.37-.08-.84-.13-1.41-.13-1.11,0-2.31.48-3.59,1.44-1.28.96-2.37,2.6-3.28,4.92v17.63h-4.65Z"/>
    <path class="cls-1" d="M144.32,63.7V28.44h3.43l.41,2.88h.09c1.13-.94,2.37-1.77,3.72-2.47,1.35-.7,2.75-1.05,4.18-1.05,2.13,0,3.94.53,5.41,1.58,1.48,1.05,2.59,2.52,3.33,4.41.75,1.89,1.12,4.11,1.12,6.67,0,2.83-.51,5.24-1.53,7.24-1.02,2-2.34,3.52-3.97,4.57-1.63,1.05-3.39,1.58-5.27,1.58-1.13,0-2.27-.25-3.43-.75-1.16-.5-2.3-1.21-3.43-2.12l.14,4.34v8.4h-4.2ZM154.55,50.32c1.37,0,2.6-.39,3.68-1.17,1.08-.78,1.93-1.9,2.54-3.38.61-1.48.91-3.23.91-5.27,0-1.83-.22-3.43-.66-4.82-.44-1.39-1.13-2.46-2.08-3.22-.94-.76-2.22-1.14-3.84-1.14-1.04,0-2.09.29-3.17.87-1.08.58-2.22,1.42-3.4,2.51v13.06c1.1.94,2.18,1.61,3.24,1.99,1.07.38,1.99.57,2.79.57Z"/>
    <path class="cls-1" d="M176.89,55.32c-.72,0-1.34-.26-1.87-.78s-.78-1.18-.78-1.99c0-.86.26-1.54.78-2.04s1.14-.76,1.87-.76,1.34.25,1.86.76.78,1.19.78,2.04c0,.8-.26,1.46-.78,1.99s-1.14.78-1.86.78Z"/>
    <path class="cls-1" d="M196.19,55.03c-1.9,0-3.75-.36-5.54-1.08-1.79-.72-3.32-1.61-4.58-2.68l2.2-3.06c1.2.97,2.44,1.75,3.71,2.35,1.27.6,2.72.9,4.36.9,1.8,0,3.15-.41,4.03-1.23.88-.82,1.33-1.83,1.33-3.03,0-.93-.31-1.71-.93-2.33-.62-.62-1.4-1.15-2.35-1.6-.95-.45-1.93-.86-2.93-1.23-1.27-.5-2.51-1.06-3.73-1.68-1.22-.62-2.22-1.42-3.01-2.41-.79-.98-1.18-2.25-1.18-3.78s.37-2.78,1.1-3.93,1.8-2.07,3.21-2.76c1.4-.68,3.09-1.03,5.06-1.03,1.67,0,3.23.3,4.68.9,1.45.6,2.7,1.34,3.73,2.2l-2.2,2.85c-.94-.67-1.9-1.23-2.88-1.7-.99-.47-2.08-.7-3.28-.7-1.74,0-3.01.39-3.83,1.18-.82.79-1.23,1.71-1.23,2.78,0,.83.28,1.54.83,2.1.55.57,1.28,1.04,2.18,1.43s1.85.78,2.86,1.18c1,.37,1.99.77,2.98,1.2.98.43,1.87.95,2.66,1.55.78.6,1.42,1.34,1.9,2.23.48.89.73,1.98.73,3.28,0,1.47-.38,2.82-1.13,4.06-.75,1.24-1.85,2.21-3.31,2.93s-3.26,1.08-5.43,1.08Z"/>
    <path class="cls-1" d="M220.16,55.42c-1.44,0-2.73-.29-3.87-.86-1.15-.57-2.05-1.41-2.7-2.51-.65-1.1-.98-2.43-.98-4,0-2.84,1.27-5.01,3.8-6.53,2.53-1.51,6.58-2.58,12.13-3.18,0-1.12-.15-2.18-.45-3.18-.3-1.01-.84-1.82-1.6-2.44-.77-.62-1.86-.93-3.3-.93s-2.91.29-4.23.88c-1.32.59-2.51,1.22-3.56,1.89l-1.68-3.01c.8-.51,1.72-1.03,2.77-1.55,1.05-.53,2.2-.96,3.44-1.32,1.24-.35,2.57-.53,3.97-.53,2.1,0,3.82.45,5.14,1.34,1.32.89,2.3,2.13,2.92,3.71.62,1.58.93,3.45.93,5.62v15.98h-3.59l-.38-3.11h-.14c-1.21,1.02-2.54,1.9-4,2.63-1.45.73-2.99,1.1-4.62,1.1ZM221.4,51.88c1.24,0,2.43-.29,3.56-.86,1.13-.57,2.32-1.42,3.56-2.54v-7.22c-2.9.32-5.21.77-6.94,1.36-1.72.59-2.95,1.31-3.68,2.15-.73.85-1.1,1.84-1.1,2.99,0,1.5.45,2.56,1.34,3.18.89.62,1.98.93,3.25.93Z"/>
    <path class="cls-1" d="M240.48,54.82v-26.72h3.69l.44,4.87h.1c.92-1.7,2.04-3.06,3.37-4.06,1.33-1,2.73-1.5,4.21-1.5.62,0,1.16.04,1.6.12.44.08.86.24,1.25.47l-.84,3.89c-.46-.13-.87-.24-1.23-.32s-.82-.12-1.38-.12c-1.08,0-2.25.47-3.49,1.4-1.25.94-2.31,2.53-3.2,4.8v17.17h-4.53Z"/>
    <path class="cls-1" d="M266.56,55.42c-2.75,0-4.77-.86-6.06-2.59-1.29-1.73-1.94-4.25-1.94-7.57v-16.49h4.41v15.97c0,2.4.38,4.15,1.15,5.25.77,1.1,2.01,1.65,3.74,1.65,1.34,0,2.54-.35,3.6-1.06,1.05-.7,2.21-1.82,3.45-3.36v-18.46h4.36v26.03h-3.64l-.34-4.08h-.14c-1.22,1.41-2.5,2.54-3.86,3.4-1.36.86-2.93,1.29-4.72,1.29Z"/>
    <circle class="cls-1" cx="10.64" cy="33.48" r="4.65"/>
    <circle class="cls-1" cx="48.1" cy="38.13" r="4.94"/>
    <path class="cls-3" d="M28.1,46.25c-.44,3.01,1.51,5.71,3.99,6.2,2.82.56,6.03-1.79,6.2-5.31"/>
    <path class="cls-4" d="M33.02,14.05c.49.04,3.44.31,5.04,2.63,1.43,2.07.71,4.24,1.87,4.85,1.16.62,2.7-1.12,4.67-2.43,3.32-2.21,8.03-3.33,11.52-2.28,5.15,1.55,9.19,8.29,9.01,14.01-.14,4.35-2.67,5.88-2.05,10.72.39,3.06,1.54,3.63,2.43,6.88,1.17,4.31.78,4.9-.53,7.97-4.34,10.16-18.43,11.85-27.34,9.71-3.48-.84-11.93-2.42-14.56-5.06-1.43-1.43-4.72-2.83-4.97-8.17-.18-3.76,1.8-4.32,1.31-8.29-.41-3.3-1.93-4.17-2.09-7.7-.09-1.98.31-3.41.93-5.53.85-2.91,2.23-7.67,6.2-12.06,2.34-2.59,5-5.52,8.58-5.26Z"/>
    <path class="cls-4" d="M22.87,21.23c4.36-4.78,6.17-8.72,15.6-12.16,4.73-1.73,14.97-3.03,23.87,2.43,2.18,1.34,3.65,2.62,4.77,3.96,2.49,3,3.61,5.84,4.33,7.97,1.97,5.77,1.58,10.65,1.45,12-.27,2.65-1.13,5.04-2.83,9.71-2.89,7.91-4.4,11.93-7.69,15.15-.48.47-2.91,2.8-6.81,4.57-7.7,3.48-15.08,1.99-17.93,1.25"/>
    <path class="cls-4" d="M72.12,27.19c1.64.35,4.92,1,6.7,3.84,3.78,6.01,1.77,12.21-1.95,16.72-2.32,2.81-7.66,4.35-9.14,4.79"/>
  </g>
</svg>